HIERARCHY
ROOT RootJoint
{
    OFFSET   0.000000   0.000000   0.000000
    CHANNELS 6 Xposition Yposition Zposition Xrotation Yrotation Zrotation
    JOINT pelvis_lowerback
    {
        OFFSET   0.000000   0.093605   0.000000
        CHANNELS 3 Xrotation Yrotation Zrotation
        JOINT lowerback_torso
        {
            OFFSET   0.000000   0.100000   0.000000
            CHANNELS 3 Xrotation Yrotation Zrotation
            JOINT torso_head
            {
                OFFSET   0.000000   0.282350   0.000000
                CHANNELS 3 Xrotation Yrotation Zrotation
                End Site
                {
                    OFFSET   0.000000   0.192650   0.000000
                }
            }
            JOINT rTorso_Clavicle
            {
                OFFSET  -0.001000   0.157500   0.000000
                CHANNELS 3 Xrotation Yrotation Zrotation
                JOINT rShoulder
                {
                    OFFSET  -0.117647   0.000000   0.000000
                    CHANNELS 3 Xrotation Yrotation Zrotation
                    JOINT rElbow
                    {
                        OFFSET  -0.245000   0.000000   0.000000
                        CHANNELS 3 Xrotation Yrotation Zrotation
                        JOINT rWrist
                        {
                            OFFSET  -0.240000   0.000000   0.000000
                            CHANNELS 3 Xrotation Yrotation Zrotation
                            End Site
                            {
                                OFFSET  -0.116353  -0.002500   0.000000
                            }
                        }
                    }
                }
            }
            JOINT lTorso_Clavicle
            {
                OFFSET   0.001000   0.157500   0.000000
                CHANNELS 3 Xrotation Yrotation Zrotation
                JOINT lShoulder
                {
                    OFFSET   0.117647   0.000000   0.000000
                    CHANNELS 3 Xrotation Yrotation Zrotation
                    JOINT lElbow
                    {
                        OFFSET   0.245000   0.000000   0.000000
                        CHANNELS 3 Xrotation Yrotation Zrotation
                        JOINT lWrist
                        {
                            OFFSET   0.240000   0.000000   0.000000
                            CHANNELS 3 Xrotation Yrotation Zrotation
                            End Site
                            {
                                OFFSET   0.116353  -0.002500   0.000000
                            }
                        }
                    }
                }
            }
        }
    }
    JOINT rHip
    {
        OFFSET  -0.100000  -0.051395   0.000000
        CHANNELS 3 Xrotation Yrotation Zrotation
        JOINT rKnee
        {
            OFFSET   0.000000  -0.410000   0.000000
            CHANNELS 3 Xrotation Yrotation Zrotation
            JOINT rAnkle
            {
                OFFSET   0.000000  -0.390000   0.000000
                CHANNELS 3 Xrotation Yrotation Zrotation
                JOINT rToeJoint
                {
                    OFFSET   0.000000  -0.050000   0.130000
                    CHANNELS 3 Xrotation Yrotation Zrotation
                    End Site
                    {
                        OFFSET  -0.010000   0.002000   0.060000
                    }
                }
            }
        }
    }
    JOINT lHip
    {
        OFFSET   0.100000  -0.051395   0.000000
        CHANNELS 3 Xrotation Yrotation Zrotation
        JOINT lKnee
        {
            OFFSET   0.000000  -0.410000   0.000000
            CHANNELS 3 Xrotation Yrotation Zrotation
            JOINT lAnkle
            {
                OFFSET   0.000000  -0.390000   0.000000
                CHANNELS 3 Xrotation Yrotation Zrotation
                JOINT lToeJoint
                {
                    OFFSET   0.000000  -0.050000   0.130000
                    CHANNELS 3 Xrotation Yrotation Zrotation
                    End Site
                    {
                        OFFSET   0.010000   0.002000   0.060000
                    }
                }
            }
        }
    }
}
MOTION
Frames: 15
Frame Time:   0.008333
 -2.376719   0.925631   3.975860   0.000000   0.000000   0.000000   0.000000   0.000000   0.000000   0.000000   0.000000   0.000000   0.000000   0.000000   0.000000   0.000000   0.000000   0.000000   0.000000   0.000000   0.000000   0.000000   0.000000   0.000000   0.000000   0.000000   0.000000   0.000000   0.000000   0.000000   0.000000   0.000000   0.000000   0.000000   0.000000   0.000000   0.000000   0.000000   0.000000   0.000000   0.000000   0.000000   0.000000   0.000000   0.000000   0.000000   0.000000   0.000000   0.000000   0.000000   0.000000   0.000000   0.000000   0.000000   0.000000   0.000000   0.000000   0.000000   0.000000   0.000000   0.000000   0.000000   0.000000
 -2.376509   0.926301   3.976470  -0.673703   0.184328   0.047902   0.635931  -0.077668  -0.074648   0.251075  -0.173002   0.055560  -0.125522   0.174283   0.096124  -0.067098  -0.297196   0.511175   0.018786   0.096967   2.032696   0.017170   0.765135  -0.001171   0.059819  -0.175376  -2.684763   0.117107   0.276155  -0.426763   0.606063  -0.067466  -2.079028   0.018126  -0.834891   0.006929   0.160210   0.303725   2.450522   0.651166   0.036197  -0.176260   0.392935   0.000450   0.000756  -0.451380  -0.096180   0.117296  -0.201170  -0.000021  -0.000220   0.697063  -0.178805   0.001099   0.531282  -0.000217   0.000029  -0.990961   0.062425   0.066042   0.257079  -0.000252   0.000154
 -2.376178   0.927440   3.977254  -1.369049   0.420221   0.091388   1.225353  -0.193664  -0.124441   0.550076  -0.387963   0.134343  -0.212372   0.342187   0.193501  -0.125943  -0.615413   1.791400   0.030421   0.184381   4.685749   0.039384   1.499402  -0.001809   0.135877  -0.134003  -4.564392   0.239300   0.521798  -1.610126   1.195483  -0.182565  -4.768464   0.041604  -1.642597   0.012028   0.352319   0.376301   4.080221   1.278715   0.071708  -0.440810   0.847810   0.001285   0.001674  -0.872133  -0.187035   0.225578  -0.410549  -0.000232  -0.000511   1.475004  -0.345314   0.062021   1.142811  -0.000679   0.000411  -1.920728   0.120707   0.128607   0.433721  -0.000446   0.000323
 -2.375762   0.928610   3.978139  -2.022757   0.668565   0.127119   1.755739  -0.333246  -0.145936   0.825876  -0.623342   0.231283  -0.288579   0.499052   0.285619  -0.172359  -0.933601   3.535647   0.037480   0.255809   7.746454   0.060735   2.181701  -0.001820   0.212445  -0.065796  -5.552031   0.359953   0.730734  -3.249192   1.765256  -0.341056  -7.855173   0.064336  -2.401945   0.015335   0.540391   0.371361   4.845941   1.832407   0.100500  -0.769714   1.281282   0.002218   0.002360  -1.264562  -0.273199   0.325406  -0.608186  -0.000536  -0.000746   2.275634  -0.494640   0.179862   1.751516  -0.001259   0.000889  -2.787852   0.175339   0.188211   0.589667  -0.000625   0.000470
 -2.375289   0.929490   3.979086  -2.628293   0.908537   0.156543   2.233859  -0.487669  -0.143280   1.071104  -0.868864   0.342929  -0.360870   0.645374   0.372141  -0.203305  -1.248509   5.537317   0.042889   0.311170  11.080935   0.078703   2.812919  -0.001383   0.282275  -0.019325  -5.885922   0.479320   0.910198  -5.139036   2.316572  -0.542172 -11.205542   0.083668  -3.113275   0.017368   0.719947   0.334204   4.990263   2.310235   0.122683  -1.148788   1.678093   0.003083   0.002748  -1.631607  -0.354974   0.417500  -0.796500  -0.000873  -0.000902   3.084462  -0.628470   0.345157   2.341683  -0.001870   0.001307  -3.597249   0.226398   0.245075   0.727139  -0.000776   0.000566
 -2.374829   0.929829   3.980065  -3.189093   1.128616   0.184322   2.667407  -0.651496  -0.128846   1.289897  -1.118801   0.449444  -0.430080   0.781785   0.458259  -0.216892  -1.559605   7.667930   0.049094   0.350420  14.603949   0.092370   3.395664  -0.000662   0.343160  -0.007035  -5.775382   0.598312   1.066217  -7.200905   2.819356  -0.770732 -14.558334   0.098134  -3.779383   0.018369   0.890590   0.276468   4.638384   2.718238   0.139235  -1.565325   2.037859   0.003790   0.002877  -1.975109  -0.432581   0.502454  -0.975833  -0.001198  -0.000981   3.894382  -0.748361   0.549556   2.910759  -0.002483   0.001607  -4.352829   0.273926   0.299245   0.848559  -0.000896   0.000609
 -2.374426   0.929441   3.981051  -3.709845   1.322151   0.210968   3.063069  -0.821063  -0.110158   1.487459  -1.369499   0.547697  -0.495995   0.908923   0.540530  -0.212174  -1.866588   9.836307   0.058056   0.373917  18.253495   0.101723   3.932978   0.000216   0.395296  -0.031179  -5.381433   0.716225   1.204058  -9.325699   3.274769  -1.018741 -17.831338   0.107660  -4.402514   0.018685   1.051536   0.206969   3.977347   3.063358   0.151412  -2.006960   2.363105   0.004307   0.002807  -2.296482  -0.506076   0.580919  -1.145282  -0.001480  -0.000990   4.699877  -0.855449   0.786718   3.458405  -0.003067   0.001776  -5.058084   0.318132   0.350844   0.956493  -0.000986   0.000607
 -2.374222   0.927589   3.981410  -3.867120   1.441642   0.093790   3.274889  -0.957382   0.065993   1.525497  -1.614713   0.633353  -0.698626   0.924549   0.549008  -0.147833  -2.049213  11.506289   0.151057   0.306280  21.539164   0.108369   4.541412   0.000436   0.267429  -0.110656  -3.725528   0.954258   1.366704 -10.652716   3.585306  -1.244590 -21.125349   0.110923  -5.022959   0.018825   1.068786  -0.006747   2.302476   2.849214  -0.038758  -2.226398   3.004732   0.005392   0.001604  -2.537180  -0.533195   0.928084  -1.010816  -0.001183  -0.000928   5.186195  -0.892474   1.146420   3.314591  -0.002183   0.001312  -5.232020   0.470019   0.530746   1.041572  -0.001086   0.000650
 -2.374099   0.924503   3.981479  -3.977956   1.577546  -0.038943   3.518328  -1.100488   0.245698   1.555772  -1.851917   0.733010  -0.905246   0.932687   0.551630  -0.089433  -2.203589  12.881372   0.237401   0.255515  24.481590   0.108840   5.112789   0.000446   0.145985  -0.184499  -2.159673   1.171070   1.508613 -11.670409   3.861708  -1.468683 -24.058997   0.108603  -5.603517   0.018707   1.076677  -0.233758   0.732290   2.606679  -0.229707  -2.373456   3.613914   0.005836   0.000738  -2.757789  -0.560694   1.252871  -0.866626  -0.000992  -0.000875   5.551673  -0.926073   1.488073   3.052397  -0.001329   0.000825  -5.397105   0.612639   0.700269   1.139248  -0.001171   0.000717
 -2.374008   0.920315   3.981377  -4.075558   1.711881  -0.168350   3.783761  -1.232690   0.419052   1.605673  -2.072104   0.837537  -1.095052   0.939652   0.553270  -0.038337  -2.337084  14.037174   0.315158   0.219238  27.138157   0.105498   5.649562   0.000330   0.033451  -0.244442  -0.831905   1.365927   1.633330 -12.470336   4.106391  -1.689581 -26.689421   0.103041  -6.146645   0.018294   1.080100  -0.452883  -0.577641   2.384346  -0.407292  -2.479695   4.180849   0.005851   0.000143  -2.963342  -0.587008   1.556244  -0.731808  -0.000865  -0.000810   5.830002  -0.955706   1.787954   2.765524  -0.000698   0.000421  -5.553415   0.745201   0.858983   1.227152  -0.001171   0.000746
 -2.373821   0.920184   3.981781  -4.341327   1.674613  -0.026168   4.112571  -1.296527   0.379402   1.733743  -2.232826   0.853263  -1.255533   0.947963   0.548012   0.006031  -2.443594  15.334066   0.385744   0.195453  29.658834   0.101392   6.147011   0.000450  -0.069785  -0.313651   0.227623   1.553280   1.759071 -13.392085   4.328610  -1.891726 -29.150863   0.096957  -6.638950   0.017492   1.081068  -0.586211  -1.578722   2.278360  -0.599903  -2.687947   4.921840   0.005005  -0.001548  -2.857613  -0.639172   1.912463  -0.520705  -0.001217  -0.001224   6.094325  -0.933195   1.631034   2.793231  -0.000554   0.000336  -5.181787   0.906952   0.928885   1.397696  -0.001013   0.000832
 -2.373738   0.920182   3.982359  -4.518251   1.607226   0.083404   4.347287  -1.354852   0.401369   1.819945  -2.373947   0.866356  -1.404607   0.955126   0.536409   0.060048  -2.557533  16.394126   0.459186   0.168401  31.991614   0.095434   6.613503   0.000783  -0.167238  -0.376129   1.345033   1.745966   1.904131 -14.123075   4.539156  -2.073020 -31.443466   0.089558  -7.099540   0.016376   1.078473  -0.715247  -2.652377   2.198105  -0.737084  -2.846433   5.493438   0.004134  -0.002363  -3.024931  -0.648442   2.150683  -0.355909  -0.001255  -0.001309   6.333983  -0.955633   1.500334   2.773377  -0.000446   0.000283  -5.142791   1.016071   1.040452   1.384260  -0.000801   0.000662
 -2.373778   0.920180   3.982965  -4.643943   1.526573   0.171338   4.554160  -1.407513   0.449620   1.881678  -2.501533   0.894215  -1.551168   0.961414   0.528642   0.112749  -2.665668  17.295840   0.528495   0.143168  34.113194   0.088375   7.048836   0.001094  -0.259969  -0.437968   2.350209   1.930019   2.047342 -14.724378   4.732975  -2.239589 -33.532845   0.081441  -7.526867   0.015156   1.073339  -0.826210  -3.629036   2.114878  -0.860350  -2.975216   5.969972   0.003360  -0.002811  -3.205877  -0.656395   2.369725  -0.229394  -0.001214  -0.001294   6.545505  -0.974439   1.396790   2.714978  -0.000361   0.000273  -5.125128   1.123972   1.152675   1.452831  -0.000698   0.000541
 -2.374027   0.920234   3.983643  -4.665900   1.486536   0.222307   4.670158  -1.461913   0.448700   1.883687  -2.568963   1.033511  -1.637064   0.940592   0.471544   0.121918  -2.875675  17.813063   0.620465   0.095734  35.658335   0.078587   7.455399   0.001583  -0.408646  -0.490846   4.057416   2.102345   2.210304 -14.953349   4.774588  -2.415265 -35.308911   0.072325  -7.962520   0.013226   1.018371  -0.910173  -5.070589   2.017463  -0.955343  -3.040646   6.302254   0.002663  -0.002671  -3.475373  -0.620884   2.542917  -0.024864  -0.001276  -0.001215   6.663260  -0.956243   1.352874   2.630784  -0.000282   0.000230  -5.148189   1.276671   1.268528   1.546040  -0.000655   0.000546
 -2.374456   0.920303   3.984328  -4.647381   1.472177   0.259846   4.766335  -1.514724   0.445637   1.864027  -2.635030   1.164572  -1.720481   0.922595   0.423160   0.124218  -3.077543  18.021077   0.700497   0.048828  36.900282   0.068130   7.836405   0.001923  -0.552154  -0.536347   5.478369   2.248496   2.360107 -14.928603   4.803230  -2.574046 -36.799247   0.062752  -8.372929   0.011421   0.956880  -1.012046  -6.268808   1.920547  -1.042328  -3.075887   6.562527   0.002082  -0.002382  -3.749845  -0.588030   2.703836   0.154901  -0.001294  -0.001074   6.752649  -0.934599   1.338550   2.517477  -0.000203   0.000174  -5.195633   1.422427   1.379254   1.618633  -0.000605   0.000538
